<?xml version="1.0" standalone="no"?>
<!DOCTYPE svg PUBLIC "-//W3C//DTD SVG 20010904//EN"
 "http://www.w3.org/TR/2001/REC-SVG-20010904/DTD/svg10.dtd">
<svg version="1.0" xmlns="http://www.w3.org/2000/svg"
 width="512.000000pt" height="512.000000pt" viewBox="0 0 512.000000 512.000000"
 preserveAspectRatio="xMidYMid meet">
<metadata>
Created by potrace 1.11, written by Peter Selinger 2001-2013
</metadata>
<g transform="translate(0.000000,512.000000) scale(0.100000,-0.100000)"
fill="#000000" stroke="none">
<path d="M2409 4546 c-2 -2 -34 -7 -70 -10 -53 -6 -215 -36 -264 -50 -5 -1
-30 -9 -55 -16 -25 -7 -50 -14 -55 -15 -63 -13 -272 -111 -388 -181 -172 -104
-255 -169 -397 -315 -125 -128 -205 -231 -283 -364 -48 -82 -121 -229 -132
-265 -4 -14 -11 -29 -15 -35 -9 -11 -74 -220 -86 -275 -4 -19 -9 -39 -10 -45
-2 -5 -7 -37 -13 -70 -5 -33 -13 -76 -16 -95 -11 -59 -14 -401 -4 -470 21
-152 18 -136 41 -240 6 -30 12 -57 13 -60 5 -24 38 -129 44 -145 5 -11 19 -47
32 -80 58 -157 185 -378 292 -513 90 -112 244 -264 342 -336 22 -17 42 -32 45
-35 9 -11 101 -71 107 -71 4 0 14 -6 22 -14 31 -28 248 -133 349 -169 111 -40
272 -83 337 -91 22 -2 40 -5 40 -6 0 -6 168 -15 295 -14 187 0 294 12 445 51
33 8 67 16 75 18 35 7 199 69 243 91 26 14 47 22 47 18 0 -3 12 3 28 13 15 10
45 28 66 38 33 17 107 62 190 117 181 120 407 359 536 567 131 211 245 502
275 699 3 21 8 49 10 62 13 63 20 178 20 320 0 139 -10 294 -20 310 -2 3 -6
24 -9 46 -15 116 -70 297 -135 449 -54 127 -196 369 -247 419 -8 8 -14 17 -14
20 0 19 -274 293 -336 336 -12 8 -50 35 -85 60 -114 80 -313 190 -345 190 -7
0 -14 3 -16 8 -6 14 -258 94 -337 107 -19 3 -37 8 -41 10 -6 4 -34 8 -125 20
-16 2 -30 4 -30 6 0 3 -363 8 -366 5z"/>
</g>
</svg>
